<?xml version="1.0" standalone="no"?>
<!DOCTYPE svg PUBLIC "-//W3C//DTD SVG 20010904//EN"
 "http://www.w3.org/TR/2001/REC-SVG-20010904/DTD/svg10.dtd">
<svg version="1.0" xmlns="http://www.w3.org/2000/svg"
 width="512.000000pt" height="512.000000pt" viewBox="0 0 512.000000 512.000000"
 preserveAspectRatio="xMidYMid meet">

<g transform="translate(0.000000,512.000000) scale(0.100000,-0.100000)"
fill="#000000" stroke="none">
<path d="M2350 4739 c-913 -93 -1684 -754 -1914 -1640 -56 -217 -70 -327 -70
-559 0 -227 14 -351 64 -551 194 -779 820 -1405 1599 -1599 203 -51 324 -65
556 -64 227 1 359 17 559 69 425 111 839 371 1117 704 675 806 706 1939 76
2780 -92 123 -295 326 -418 418 -454 340 -1015 498 -1569 442z m610 -849 c19
-10 40 -50 90 -165 11 -27 25 -59 30 -70 40 -88 121 -317 161 -450 16 -55 33
-113 39 -130 17 -53 90 -352 90 -369 0 -9 5 -16 10 -16 12 0 113 134 152 201
45 77 109 244 138 359 14 53 26 70 50 70 10 0 22 -6 28 -12 11 -14 53 -296 77
-523 9 -77 18 -228 20 -335 4 -181 3 -203 -20 -305 -77 -342 -179 -524 -377
-675 -160 -123 -476 -227 -774 -255 -157 -15 -366 38 -706 179 -174 73 -432
190 -465 212 -26 16 -31 59 -8 67 8 4 74 7 147 8 73 1 162 5 197 10 72 10 243
58 308 86 l43 18 -107 60 c-258 145 -666 430 -822 574 -14 13 -45 39 -68 58
-32 26 -43 43 -43 63 0 55 19 56 152 7 113 -41 167 -57 303 -87 110 -24 305
-15 305 13 0 13 -38 154 -68 257 -27 92 -92 271 -107 295 -7 11 -16 30 -20 42
-17 60 -148 274 -202 333 -25 27 -29 50 -11 68 19 19 34 15 138 -32 82 -37
304 -116 326 -116 10 0 -4 326 -17 398 -9 49 -8 66 1 77 26 32 53 17 110 -61
66 -91 234 -256 346 -342 88 -66 318 -218 372 -246 l33 -17 28 63 c44 97 63
204 66 368 2 80 0 178 -4 219 -8 96 10 127 59 101z"/>
<path d="M2930 2300 c-169 -36 -314 -197 -327 -364 -5 -51 -9 -64 -27 -72 -33
-14 -33 -50 1 -67 18 -10 33 -30 42 -54 31 -89 125 -198 202 -236 21 -10 36
-27 43 -49 11 -31 14 -33 54 -32 23 0 50 8 59 16 11 10 45 17 88 20 127 9 270
100 325 207 14 28 27 40 50 44 34 7 40 31 11 46 -16 9 -17 16 -9 58 12 64 2
156 -25 223 -16 39 -21 66 -17 91 11 66 -19 100 -71 81 -18 -7 -31 -3 -62 19
-85 62 -230 91 -337 69z m458 -142 c2 -21 0 -38 -5 -38 -9 0 -63 65 -63 75 0
3 15 5 33 3 29 -3 32 -6 35 -40z m-788 -328 c0 -28 -2 -30 -20 -20 -23 12 -25
21 -8 38 20 20 28 14 28 -18z m854 -89 c3 -5 -1 -12 -10 -15 -22 -9 -24 -8
-24 9 0 16 25 21 34 6z m-499 -281 c18 -7 17 -9 -9 -19 -40 -16 -60 -10 -64
17 -3 20 -1 22 25 16 15 -4 37 -10 48 -14z"/>
</g>
</svg>
